<svg version="1.1" style="font-family: Roboto; font-size: 12px;" xmlns="http://www.w3.org/2000/svg" width="650" height="400" viewBox="0 0 650 400" aria-hidden="false" aria-label="Interactive chart"><defs aria-hidden="true"><clipPath ><rect x="0" y="0" width="603" height="279" fill="none"></rect></clipPath><clipPath ><rect x="0" y="0" width="603" height="279" fill="none"></rect></clipPath></defs><rect fill="#ffffff" x="0" y="0" width="650" height="400" rx="0" ry="0" aria-hidden="true"></rect><rect fill="none" x="37" y="47" width="603" height="279" aria-hidden="true"></rect><g data-z-index="0" aria-hidden="true"></g><rect fill="none" data-z-index="1" x="37" y="47" width="603" height="279" aria-hidden="true"></rect><g data-z-index="1" aria-hidden="true"><path fill="none" stroke-dasharray="none" data-z-index="1" d="M 137.5 47 L 137.5 326" opacity="1"></path><path fill="none" stroke-dasharray="none" data-z-index="1" d="M 237.5 47 L 237.5 326" opacity="1"></path><path fill="none" stroke-dasharray="none" data-z-index="1" d="M 338.5 47 L 338.5 326" opacity="1"></path><path fill="none" stroke-dasharray="none" data-z-index="1" d="M 438.5 47 L 438.5 326" opacity="1"></path><path fill="none" stroke-dasharray="none" data-z-index="1" d="M 539.5 47 L 539.5 326" opacity="1"></path><path fill="none" stroke-dasharray="none" data-z-index="1" d="M 639.5 47 L 639.5 326" opacity="1"></path><path fill="none" stroke-dasharray="none" data-z-index="1" d="M 36.5 47 L 36.5 326" opacity="1"></path></g><g data-z-index="1" aria-hidden="true"><path fill="none" stroke="#e6e6e6" stroke-width="1" stroke-dasharray="none" data-z-index="1" d="M 37 326.5 L 640 326.5" opacity="1"></path><path fill="none" stroke="#e6e6e6" stroke-width="1" stroke-dasharray="none" data-z-index="1" d="M 37 256.5 L 640 256.5" opacity="1"></path><path fill="none" stroke="#e6e6e6" stroke-width="1" stroke-dasharray="none" data-z-index="1" d="M 37 187.5 L 640 187.5" opacity="1"></path><path fill="none" stroke="#e6e6e6" stroke-width="1" stroke-dasharray="none" data-z-index="1" d="M 37 117.5 L 640 117.5" opacity="1"></path><path fill="none" stroke="#e6e6e6" stroke-width="1" stroke-dasharray="none" data-z-index="1" d="M 37 46.5 L 640 46.5" opacity="1"></path></g><g data-z-index="2" aria-hidden="true"><path fill="none" stroke="#ccd6eb" stroke-width="1" data-z-index="7" d="M 37 326.5 L 640 326.5"></path></g><g data-z-index="2" aria-hidden="true"><path fill="none" data-z-index="7" d="M 37 47 L 37 326"></path></g><g data-z-index="3" aria-hidden="false"><g data-z-index="0.1" opacity="1" transform="translate(37,47) scale(1 1)" clip-path="url(#highcharts-0smmulp-25-)" aria-hidden="true"><path fill="rgba(111,88,233,0.35)" d="M 50.25 153.45 C 50.25 153.45 110.55 132.525 150.75 132.525 C 190.95 132.525 211.05 226.6875 251.25 226.6875 C 291.45 226.6875 311.55 13.949999999999989 351.75 13.949999999999989 C 391.95 13.949999999999989 412.05 233.6625 452.25 233.6625 C 492.45 233.6625 552.75 125.55000000000001 552.75 125.55000000000001 L 552.75 279 C 552.75 279 492.45 279 452.25 279 C 412.05 279 391.95 279 351.75 279 C 311.55 279 291.45 279 251.25 279 C 211.05 279 190.95 279 150.75 279 C 110.55 279 50.25 279 50.25 279 Z" data-z-index="0"></path><path fill="none" d="M 50.25 153.45 C 50.25 153.45 110.55 132.525 150.75 132.525 C 190.95 132.525 211.05 226.6875 251.25 226.6875 C 291.45 226.6875 311.55 13.949999999999989 351.75 13.949999999999989 C 391.95 13.949999999999989 412.05 233.6625 452.25 233.6625 C 492.45 233.6625 552.75 125.55000000000001 552.75 125.55000000000001" data-z-index="1" stroke="#6f58e9" stroke-width="2" stroke-linejoin="round" stroke-linecap="round"></path><path fill="none" d="M 50.25 153.45 C 50.25 153.45 110.55 132.525 150.75 132.525 C 190.95 132.525 211.05 226.6875 251.25 226.6875 C 291.45 226.6875 311.55 13.949999999999989 351.75 13.949999999999989 C 391.95 13.949999999999989 412.05 233.6625 452.25 233.6625 C 492.45 233.6625 552.75 125.55000000000001 552.75 125.55000000000001" data-z-index="2" stroke-linecap="round" stroke-linejoin="round" stroke="rgba(192,192,192,0.0001)" stroke-width="22" style="cursor: pointer;"></path></g><g data-z-index="0.1" opacity="1" transform="translate(37,47) scale(1 1)" clip-path="none" style="cursor: pointer; outline: none;" aria-hidden="false" role="region" tabindex="-1" aria-label="Item 1, series 1 of 2 with 6 data points."><path fill="#6f58e9" d="M 50 157.45 A 4 4 0 1 1 50.00399999933334 157.44999800000016 Z" opacity="1" tabindex="-1" role="img" aria-label="Category 1, 36 units. Item 1." style="outline: none;"></path><path fill="#6f58e9" d="M 150 136.525 A 4 4 0 1 1 150.00399999933333 136.52499800000018 Z" opacity="1" tabindex="-1" role="img" aria-label="Category 2, 42 units. Item 1." style="outline: none;"></path><path fill="#6f58e9" d="M 251 230.6875 A 4 4 0 1 1 251.00399999933333 230.68749800000018 Z" opacity="1" tabindex="-1" role="img" aria-label="Category 3, 15 units. Item 1." style="outline: none;"></path><path fill="#6f58e9" d="M 351 17.94999999999999 A 4 4 0 1 1 351.00399999933336 17.949998000000157 Z" opacity="1" tabindex="-1" role="img" aria-label="Category 4, 76 units. Item 1." style="outline: none;"></path><path fill="#6f58e9" d="M 452 237.6625 A 4 4 0 1 1 452.00399999933336 237.66249800000017 Z" opacity="1" tabindex="-1" role="img" aria-label="Category 5, 13 units. Item 1." style="outline: none;"></path><path fill="#6f58e9" d="M 552 129.55 A 4 4 0 1 1 552.0039999993334 129.5499980000002 Z" opacity="1" tabindex="-1" role="img" aria-label="Category 6, 44 units. Item 1." style="outline: none;"></path></g><g data-z-index="0.1" opacity="1" transform="translate(37,47) scale(1 1)" clip-path="url(#highcharts-0smmulp-25-)" aria-hidden="true"><path fill="rgba(148,209,61,0.35)" d="M 50.25 223.2 C 50.25 223.2 110.55 240.6375 150.75 240.6375 C 190.95 240.6375 211.05 240.6375 251.25 223.2 C 291.45 205.7625 311.55 45.337500000000006 351.75 45.337500000000006 C 391.95 45.337500000000006 412.05 142.9875 452.25 142.9875 C 492.45 142.9875 552.75 45.337500000000006 552.75 45.337500000000006 L 552.75 279 C 552.75 279 492.45 279 452.25 279 C 412.05 279 391.95 279 351.75 279 C 311.55 279 291.45 279 251.25 279 C 211.05 279 190.95 279 150.75 279 C 110.55 279 50.25 279 50.25 279 Z" data-z-index="0"></path><path fill="none" d="M 50.25 223.2 C 50.25 223.2 110.55 240.6375 150.75 240.6375 C 190.95 240.6375 211.05 240.6375 251.25 223.2 C 291.45 205.7625 311.55 45.337500000000006 351.75 45.337500000000006 C 391.95 45.337500000000006 412.05 142.9875 452.25 142.9875 C 492.45 142.9875 552.75 45.337500000000006 552.75 45.337500000000006" data-z-index="1" stroke="#94d13d" stroke-width="2" stroke-linejoin="round" stroke-linecap="round"></path><path fill="none" d="M 50.25 223.2 C 50.25 223.2 110.55 240.6375 150.75 240.6375 C 190.95 240.6375 211.05 240.6375 251.25 223.2 C 291.45 205.7625 311.55 45.337500000000006 351.75 45.337500000000006 C 391.95 45.337500000000006 412.05 142.9875 452.25 142.9875 C 492.45 142.9875 552.75 45.337500000000006 552.75 45.337500000000006" data-z-index="2" stroke-linecap="round" stroke-linejoin="round" stroke="rgba(192,192,192,0.0001)" stroke-width="22" style="cursor: pointer;"></path></g><g data-z-index="0.1" opacity="1" transform="translate(37,47) scale(1 1)" clip-path="none" style="cursor: pointer; outline: none;" aria-hidden="false" role="region" tabindex="-1" aria-label="Item 2, series 2 of 2 with 6 data points."><path fill="#94d13d" d="M 50 219.2 L 54 223.2 L 50 227.2 L 46 223.2 Z" opacity="1" tabindex="-1" role="img" aria-label="Category 1, 16 units. Item 2." style="outline: none;"></path><path fill="#94d13d" d="M 150 236.6375 L 154 240.6375 L 150 244.6375 L 146 240.6375 Z" opacity="1" tabindex="-1" role="img" aria-label="Category 2, 11 units. Item 2." style="outline: none;"></path><path fill="#94d13d" d="M 251 219.2 L 255 223.2 L 251 227.2 L 247 223.2 Z" opacity="1" tabindex="-1" role="img" aria-label="Category 3, 16 units. Item 2." style="outline: none;"></path><path fill="#94d13d" d="M 351 41.337500000000006 L 355 45.337500000000006 L 351 49.337500000000006 L 347 45.337500000000006 Z" opacity="1" tabindex="-1" role="img" aria-label="Category 4, 67 units. Item 2." style="outline: none;"></path><path fill="#94d13d" d="M 452 138.9875 L 456 142.9875 L 452 146.9875 L 448 142.9875 Z" opacity="1" tabindex="-1" role="img" aria-label="Category 5, 39 units. Item 2." style="outline: none;"></path><path fill="#94d13d" d="M 552 41.337500000000006 L 556 45.337500000000006 L 552 49.337500000000006 L 548 45.337500000000006 Z" opacity="1" tabindex="-1" role="img" aria-label="Category 6, 67 units. Item 2." style="outline: none;"></path></g></g><g data-z-index="3" aria-hidden="true"><g stroke-linecap="round" style="cursor: pointer;" transform="translate(616,10)"><title>Chart context menu</title><rect fill="#ffffff" x="0.5" y="0.5" width="24" height="22" rx="2" ry="2" stroke="none" stroke-width="1"></rect><path fill="#666666" d="M 6 6.5 L 20 6.5 M 6 11.5 L 20 11.5 M 6 16.5 L 20 16.5" data-z-index="1" stroke="#666666" stroke-width="3"></path><text font-family='Roboto-Regular,Roboto' x="0" data-z-index="1" y="15.5" style="color: rgb(51, 51, 51); font-weight: normal; fill: rgb(51, 51, 51);"></text></g></g><text font-family='Roboto-Regular,Roboto' x="325" text-anchor="middle" data-z-index="4" style="color: rgb(51, 51, 51); font-size: 18px; fill: rgb(51, 51, 51);" y="24" aria-hidden="true">Chart title</text><text font-family='Roboto-Regular,Roboto' x="325" text-anchor="middle" data-z-index="4" style="color: rgb(102, 102, 102); fill: rgb(102, 102, 102);" y="46" aria-hidden="true"></text><text font-family='Roboto-Regular,Roboto' x="10" text-anchor="start" data-z-index="4" style="color: rgb(102, 102, 102); fill: rgb(102, 102, 102);" y="397" aria-hidden="true"></text><g data-z-index="7" transform="translate(251,359)" aria-hidden="true"><rect fill="none" rx="0" ry="0" x="0" y="0" width="147" height="26"></rect><g data-z-index="1"><g><g data-z-index="1" transform="translate(8,3)"><text font-family='Roboto-Regular,Roboto' x="21" text-anchor="start" data-z-index="2" y="15" style="color: rgb(51, 51, 51); cursor: pointer; font-size: 12px; font-weight: bold; fill: rgb(51, 51, 51);">Item 1</text><rect x="2" y="4" width="12" height="12" fill="#6f58e9" rx="6" ry="6" data-z-index="3"></rect></g><g data-z-index="1" transform="translate(83.796875,3)"><text font-family='Roboto-Regular,Roboto' x="21" y="15" text-anchor="start" data-z-index="2" style="color: rgb(51, 51, 51); cursor: pointer; font-size: 12px; font-weight: bold; fill: rgb(51, 51, 51);">Item 2</text><rect x="2" y="4" width="12" height="12" fill="#94d13d" rx="6" ry="6" data-z-index="3"></rect></g></g></g></g><g data-z-index="7" aria-hidden="true"><text font-family='Roboto-Regular,Roboto' x="87.25" style="color: rgb(102, 102, 102); cursor: default; font-size: 11px; fill: rgb(102, 102, 102);" text-anchor="middle" transform="translate(0,0)" y="345" opacity="1">Category 1</text><text font-family='Roboto-Regular,Roboto' x="187.75" text-anchor="middle" transform="translate(0,0)" style="color: rgb(102, 102, 102); cursor: default; font-size: 11px; fill: rgb(102, 102, 102);" y="345" opacity="1">Category 2</text><text font-family='Roboto-Regular,Roboto' x="288.25" text-anchor="middle" transform="translate(0,0)" style="color: rgb(102, 102, 102); cursor: default; font-size: 11px; fill: rgb(102, 102, 102);" y="345" opacity="1">Category 3</text><text font-family='Roboto-Regular,Roboto' x="388.75" text-anchor="middle" transform="translate(0,0)" style="color: rgb(102, 102, 102); cursor: default; font-size: 11px; fill: rgb(102, 102, 102);" y="345" opacity="1">Category 4</text><text font-family='Roboto-Regular,Roboto' x="489.25" text-anchor="middle" transform="translate(0,0)" style="color: rgb(102, 102, 102); cursor: default; font-size: 11px; fill: rgb(102, 102, 102);" y="345" opacity="1">Category 5</text><text font-family='Roboto-Regular,Roboto' x="589.75" text-anchor="middle" transform="translate(0,0)" style="color: rgb(102, 102, 102); cursor: default; font-size: 11px; fill: rgb(102, 102, 102);" y="345" opacity="1">Category 6</text></g><g data-z-index="7" aria-hidden="true"><text font-family='Roboto-Regular,Roboto' x="22" style="color: rgb(102, 102, 102); cursor: default; font-size: 11px; fill: rgb(102, 102, 102);" text-anchor="end" transform="translate(0,0)" y="331" opacity="1">0</text><text font-family='Roboto-Regular,Roboto' x="22" style="color: rgb(102, 102, 102); cursor: default; font-size: 11px; fill: rgb(102, 102, 102);" text-anchor="end" transform="translate(0,0)" y="261" opacity="1">20</text><text font-family='Roboto-Regular,Roboto' x="22" text-anchor="end" transform="translate(0,0)" style="color: rgb(102, 102, 102); cursor: default; font-size: 11px; fill: rgb(102, 102, 102);" y="191" opacity="1">40</text><text font-family='Roboto-Regular,Roboto' x="22" text-anchor="end" transform="translate(0,0)" style="color: rgb(102, 102, 102); cursor: default; font-size: 11px; fill: rgb(102, 102, 102);" y="121" opacity="1">60</text><text font-family='Roboto-Regular,Roboto' x="22" text-anchor="end" transform="translate(0,0)" style="color: rgb(102, 102, 102); cursor: default; font-size: 11px; fill: rgb(102, 102, 102);" y="52" opacity="1">80</text></g></svg>